<svg xmlns="http://www.w3.org/2000/svg" width="32.873" height="33.162" viewBox="0 0 32.873 33.162">
  <g id="Group_118" data-name="Group 118" transform="translate(-2431.474 75.57)">
    <g id="Group_116" data-name="Group 116" transform="translate(2448 -73.5)">
      <path id="Path_8" data-name="Path 8" d="M14.25,14.5A33.367,33.367,0,0,1,6.9,8.883,63.647,63.647,0,0,1,0,0" fill="none" stroke="#112d4e" stroke-linecap="round" stroke-width="3"/>
      <path id="Path_9" data-name="Path 9" d="M14.25,0A73.91,73.91,0,0,0,6.539,6.686,73.511,73.511,0,0,0,0,14.5" transform="translate(0 14.5)" fill="none" stroke="#112d4e" stroke-linecap="round" stroke-width="3"/>
    </g>
    <g id="Group_117" data-name="Group 117" transform="translate(92 50)">
      <path id="Path_7" data-name="Path 7" d="M0,14.5A39.985,39.985,0,0,0,8.438,8.346,38.4,38.4,0,0,0,14.5,0" transform="translate(2341.5 -123.5)" fill="none" stroke="#112d4e" stroke-linecap="round" stroke-width="3"/>
      <path id="Path_10" data-name="Path 10" d="M0,0A38.6,38.6,0,0,1,8.32,6.063,40.643,40.643,0,0,1,14.5,14.5" transform="translate(2341.5 -109)" fill="none" stroke="#112d4e" stroke-linecap="round" stroke-width="3"/>
    </g>
  </g>
</svg>
